<svg xmlns="http://www.w3.org/2000/svg" viewBox="0 0 600 600">
	<rect width="600" height="600" fill="#f2b134"/>
	<g fill="none" stroke-width="34">
		<circle cx="300" cy="360" r="250" stroke="#b8401f"/>
		<circle cx="300" cy="360" r="210" stroke="#e8742c"/>
		<circle cx="300" cy="360" r="170" stroke="#f7c65a"/>
	</g>
	<circle cx="300" cy="360" r="120" fill="#fbf1dc"/>
	<path d="M0 420 L150 250 L230 340 L330 200 L470 380 L530 320 L600 400 V600 H0Z" fill="#5a3420"/>
	<path d="M0 480 L120 380 L220 460 L360 350 L480 450 L600 390 V600 H0Z" fill="#8a8f3a"/>
	<path d="M0 540 L140 480 L300 540 L460 470 L600 520 V600 H0Z" fill="#2f7f78"/>
	<path d="M330 200 l-26 36 18 -6 8 22 8 -22 18 6z" fill="#fbf1dc"/>
	<g transform="translate(300 150)">
		<path d="M0 90 C-12 60 -42 40 -42 10 A42 42 0 0 1 42 10 C42 40 12 60 0 90Z" fill="#b8401f" stroke="#2b1a12" stroke-width="6"/>
		<circle cx="0" cy="10" r="16" fill="#fbf1dc" stroke="#2b1a12" stroke-width="6"/>
	</g>
	<text x="300" y="80" text-anchor="middle" font-family="Georgia, serif" font-size="64" font-weight="bold" font-style="italic" fill="#fbf1dc" stroke="#2b1a12" stroke-width="3" paint-order="stroke">Wild Shoot</text>
</svg>
